<svg width="572" height="140" viewBox="0 0 572 140" fill="none" xmlns="http://www.w3.org/2000/svg">
<g clip-path="url(#clip0)">
<path fill-rule="evenodd" clip-rule="evenodd" d="M78.4687 0.506302H38.9035V2.01874C38.9035 2.01874 44.6885 4.98986 47.7062 9.76747H64.7488L38.0718 40.5006V48.5266H78.4687V39.2657H51.7918L78.4687 8.53259V0.506302Z" fill="white"/>
<path fill-rule="evenodd" clip-rule="evenodd" d="M40.1135 24.8974C40.1135 33.1033 34.1965 39.8053 25.6645 39.8053C17.1326 39.8053 11.0778 32.9671 11.0778 24.7605V24.6236C11.0778 16.4176 16.9952 9.71582 25.527 9.71582C34.059 9.71582 40.1135 16.5546 40.1135 24.7605V24.8974ZM51.1815 23.9218C50.8215 10.6389 40.2703 0.00534058 25.6645 0.00534058C10.8026 0.00534058 0 11.1521 0 24.7605V24.8974C0 38.5059 10.665 49.5159 25.527 49.5159C29.7696 49.5159 33.6806 48.6063 37.1047 46.9915V40.4041L51.1815 24.103C51.1815 24.0996 51.1815 23.9253 51.1815 23.9218Z" fill="white"/>
</g>
<g clip-path="url(#clip1)">
<path fill-rule="evenodd" clip-rule="evenodd" d="M186.19 8.01975V2.30194H189.72V7.87886C189.72 11.8962 189.197 15.393 186.6 19.5747H181.044V17.4242H183.412C181.749 14.4009 181.044 11.4227 181.044 7.87886V2.30194H184.596V8.01975C184.596 10.9491 184.891 13.4773 185.393 15.485C185.893 13.5478 186.19 10.9961 186.19 8.01975ZM174.427 3.12772C174.929 2.53676 175.658 2.11213 176.705 2.11213C179.163 2.11213 179.731 3.76564 179.731 6.83784V9.69674H176.224V6.50714C176.224 5.42111 176.203 4.90059 175.429 4.90059C174.656 4.90059 174.632 5.44263 174.632 6.50714V17.7784H171.08V2.30194H174.427V3.12772ZM160.898 7.05113C160.898 3.67171 161.855 2.06517 165.293 2.06517C168.709 2.06517 169.666 3.64823 169.666 7.05113V10.6184H164.426V13.5732C164.426 14.6592 164.448 15.1797 165.292 15.1797C166.112 15.1797 166.134 14.6123 166.134 13.5732V11.5166H169.666V13.0527C169.666 16.4321 168.709 18.0152 165.293 18.0152C161.855 18.0152 160.898 16.4321 160.898 13.0527V7.05113ZM164.426 7.78298H166.134V6.62455C166.134 5.42111 166.112 4.9006 165.292 4.9006C164.45 4.9006 164.426 5.41915 164.426 6.62455V7.78298Z" fill="white"/>
<path fill-rule="evenodd" clip-rule="evenodd" d="M155.445 14.8236C155.969 13.1466 156.242 10.9021 156.242 8.04323V2.30194H159.794V8.56375C159.794 12.5791 158.928 15.6983 157.424 17.7784H153.464C151.962 15.6983 151.118 12.5811 151.118 8.56375V2.30194H154.648V8.04323C154.648 10.9021 154.945 13.1466 155.445 14.8236ZM141.191 7.05113C141.191 3.67171 142.146 2.06517 145.585 2.06517C149 2.06517 149.957 3.64823 149.957 7.05113V13.0527C149.957 16.4321 149 18.0152 145.585 18.0152C142.146 18.0152 141.191 16.4321 141.191 13.0527V7.05113ZM145.585 15.1797C146.358 15.1797 146.382 14.6357 146.382 13.5732V6.50909C146.382 5.42305 146.358 4.90254 145.585 4.90254C144.788 4.90254 144.764 5.44458 144.764 6.50909V13.5732C144.764 14.6592 144.788 15.1797 145.585 15.1797Z" fill="white"/>
<path fill-rule="evenodd" clip-rule="evenodd" d="M106.333 0.00875854H111.413C114.486 0.00875854 115.807 1.45093 115.809 4.80686V13.0059C115.809 16.3834 114.486 17.7786 111.413 17.7786H106.333V0.00875854ZM110.752 14.399C111.936 14.399 111.981 13.9274 111.981 12.7454V5.06496C111.981 3.88304 111.936 3.38797 110.752 3.38797H110.116V14.399H110.752Z" fill="white"/>
<path d="M124.756 14.1074C124.751 13.9469 124.751 13.7689 124.751 13.5732V11.4227H121.22V13.3129C121.22 14.0585 121.277 14.7003 121.398 15.2502C122.46 14.718 123.59 14.3335 124.756 14.1074Z" fill="white"/>
<path d="M125.114 11.2094C126.069 11.9666 126.435 12.4148 126.435 13.761L126.433 13.8941C127.654 13.8184 128.879 13.9132 130.074 14.1759C130.043 11.3405 129.265 9.95113 127.458 8.56375C126.024 7.45228 124.772 6.88676 124.772 5.87117C124.772 5.20977 124.975 4.90255 125.546 4.90255C126.069 4.90255 126.364 5.25673 126.364 5.72833V7.1705H129.895V6.15295C129.895 3.27057 128.574 2.06517 125.546 2.06517C122.678 2.06517 121.265 3.38798 121.265 6.08251C121.267 8.4209 122.769 9.2956 125.114 11.2094ZM120.447 15.7766V2.30194H116.916V17.7784H117.917C118.674 17.0095 119.524 16.3371 120.447 15.7766Z" fill="white"/>
<path fill-rule="evenodd" clip-rule="evenodd" d="M213.833 28.0575C214.812 27.3335 216.39 26.2807 218.066 26.2807C220.387 26.2807 222.503 27.5664 222.501 30.1944V40.7944H219.897V30.664C219.897 29.4606 219.409 28.4822 217.883 28.4822C216.572 28.4822 215.081 29.3862 213.833 30.6503V40.7944H211.229V20.0855H213.833V28.0575ZM155.549 29.0535V20.7371H158.153V40.7944H155.549V31.1728H147.245V40.7944H144.641V20.7371H147.245V29.0535H155.549ZM168.736 25.8542C170.813 25.8542 172.155 26.8932 173.011 28.0556C173.864 29.216 174.292 30.5622 174.107 33.926H165.086C165.204 36.5677 166.061 39.0626 169.101 39.0626C170.994 39.0626 171.971 38.5734 173.009 37.7164L174.046 39.184C174.046 39.184 172.458 41.0195 168.857 41.0195C165.256 41.0195 162.386 38.9413 162.386 32.9476C162.386 26.9539 166.659 25.8542 168.736 25.8542ZM168.431 27.8697C166.149 27.8697 165.297 29.7678 165.114 32.1512H171.666C171.666 30.1317 171.057 27.8697 168.431 27.8697Z" fill="white"/>
<path fill-rule="evenodd" clip-rule="evenodd" d="M188.396 29.9497V37.7163C188.396 38.6947 189.128 39.2446 189.619 39.5499L188.337 41.5067C188.337 41.5067 186.649 40.9686 186.155 39.4012C185.459 40.1937 184.313 41.1408 182.292 41.1408C179.729 41.1408 177.348 39.859 177.348 37.1665C177.348 34.4739 179.546 32.9456 181.011 32.3958C182.226 31.9398 185.08 31.9046 186.016 31.9046V30.1317C186.016 29.1533 185.588 28.1143 183.695 28.1143C181.802 28.1143 179.116 29.7658 179.116 29.7658L177.834 28.1769C177.834 28.1769 180.278 26.0361 183.879 26.0361C187.479 26.0361 188.396 28.5428 188.396 29.9497ZM180.153 36.8612C180.153 39 181.374 39.4286 182.412 39.4286C184.615 39.4286 185.678 37.6616 186.014 36.9591V33.4466C185.616 33.4583 184.904 33.4877 183.756 33.5581C181.74 33.6814 180.153 34.7224 180.153 36.8612Z" fill="white"/>
<path d="M193.708 38.5734V20.2283L195.906 19.7998V38.0842C195.906 38.7574 196.15 39.4305 197.371 39.3072L197.615 41.0195C197.615 41.0195 193.708 42.4871 193.708 38.5734ZM205.612 39.5518C204.695 39.5518 203.963 39.002 203.963 38.0842V28.4841H206.893L207.686 26.5273H203.963V22.4297L201.765 22.8583V26.5273H199.811V28.4841H201.765V38.5734C201.765 40.4696 203.291 41.5087 204.94 41.5087C206.588 41.5087 207.626 41.0195 207.626 41.0195L207.565 39.2466C207.565 39.2446 206.528 39.5518 205.612 39.5518ZM189.89 18.4339H189.607V17.432H189.199V17.2168H190.299V17.432H189.89V18.4339ZM191.762 18.4339H191.498V17.4164H191.494L191.242 18.4339H190.965L190.719 17.4164H190.715V18.4339H190.453V17.2168H190.865L191.109 18.1756H191.113L191.354 17.2168H191.762V18.4339Z" fill="white"/>
<path fill-rule="evenodd" clip-rule="evenodd" d="M216.189 6.58931H192.668V8.13324H214.556C225.271 8.13324 233.959 16.7804 233.959 27.4489C233.959 38.1175 225.271 46.7646 214.556 46.7646H205.879C205.781 46.0978 205.447 45.4886 204.937 45.0479C204.428 44.6072 203.778 44.3644 203.105 44.3636H165.272C163.861 44.3636 162.699 45.4066 162.498 46.7646H129.055C118.339 46.7646 109.649 38.1175 109.649 27.4489C109.649 25.0264 110.1 22.7095 110.919 20.5727H108.306C107.624 22.6536 107.276 24.8301 107.277 27.0204C107.277 38.3073 116.297 47.4534 127.423 47.4534H162.48C162.548 48.1481 162.872 48.7924 163.389 49.2611C163.905 49.7298 164.577 49.9894 165.274 49.9895H203.107C204.564 49.9895 205.762 48.878 205.901 47.4534H216.191C227.317 47.4534 236.335 38.3073 236.335 27.0204C236.333 15.7374 227.315 6.58931 216.189 6.58931ZM167.778 46.893L167.782 46.8977H167.778V46.893ZM167.778 45.796V46.893C167.676 46.7707 167.548 46.6726 167.403 46.6061C167.256 46.5386 167.096 46.5052 166.935 46.5083C166.804 46.5029 166.674 46.5244 166.552 46.5715C166.43 46.6185 166.319 46.6901 166.226 46.7818C166.133 46.8736 166.06 46.9835 166.011 47.1047C165.962 47.226 165.939 47.356 165.942 47.4867C165.942 48.0444 166.346 48.4456 166.948 48.4456C167.105 48.4444 167.26 48.4106 167.404 48.3463C167.547 48.2819 167.675 48.1885 167.78 48.0718V49.1715L167.771 49.1744C167.455 49.2668 167.226 49.334 166.927 49.334C166.409 49.334 165.915 49.1461 165.532 48.8154C165.338 48.6523 165.184 48.4477 165.081 48.2166C164.977 47.9855 164.927 47.734 164.934 47.4808C164.934 46.9995 165.127 46.5357 165.481 46.1894C165.863 45.8251 166.37 45.6208 166.897 45.618C167.208 45.618 167.493 45.6845 167.778 45.796ZM172.919 45.7138V47.0758H171.744V45.7138H170.932V49.242H171.744V47.7959H172.919V49.242H173.731V45.7138H172.919ZM177.693 49.242L177.938 48.6295H179.204L179.434 49.242H180.415L179.081 45.7138H178.078L176.719 49.242H177.693ZM178.571 46.8038H178.578L178.956 47.927H178.192L178.571 46.8038ZM183.799 45.7138H183.019V49.242H183.799V47.0797H183.807L185.235 49.242H186.012V45.7138H185.235V47.8702H185.227L183.799 45.7138ZM189.773 45.7138H188.995V49.242H189.773V47.0797H189.781L191.207 49.242H191.989V45.7138H191.207V47.8702H191.199L189.773 45.7138ZM196.039 47.0797V46.4907H197.256V45.7138H195.017V49.242H197.256V48.4651H196.039V47.8565H197.193V47.0797H196.039ZM202.867 48.4651H201.64V45.7138H200.616V49.242H202.867V48.4651Z" fill="white"/>
<path fill-rule="evenodd" clip-rule="evenodd" d="M140.026 13.1094C140.026 16.0818 139.29 17.661 136.811 18.0132C139.151 20.4961 140.45 23.784 140.441 27.1985C140.441 34.56 134.533 40.5303 127.247 40.5303C119.962 40.5303 114.056 34.562 114.056 27.1985C114.056 27.1336 114.058 27.0695 114.06 27.0051C114.06 26.9725 114.061 26.9398 114.062 26.9069C114.203 26.7543 114.41 26.4921 114.365 26.359C114.338 26.2761 114.372 26.2209 114.407 26.1658C114.442 26.1103 114.477 26.055 114.449 25.9716C114.392 25.8052 114.308 25.3356 114.42 25.3063C114.468 25.2951 114.501 25.352 114.538 25.4173C114.587 25.5014 114.643 25.5995 114.752 25.5841C114.945 25.5567 115.027 25.1673 114.972 24.864C114.942 24.6968 114.828 24.5878 114.731 24.4959C114.652 24.421 114.586 24.3575 114.586 24.2828C114.586 24.2539 114.585 24.2175 114.584 24.1763C114.579 23.9806 114.573 23.6775 114.64 23.5627C114.724 23.4258 114.918 23.3142 114.918 23.3142C114.918 23.3142 114.896 22.9542 114.869 22.5824C114.994 22.2422 115.133 21.9073 115.285 21.5785C115.301 22.1284 115.334 23.3905 115.334 23.5627C115.334 23.7838 115.443 24.2554 115.609 24.2261C115.775 24.2007 115.887 24.0891 115.887 24.0891C115.887 24.0891 115.941 22.8426 115.971 22.6763C115.998 22.51 116.137 22.3436 116.219 22.3436C116.256 22.3436 116.287 22.3969 116.322 22.4567C116.367 22.5336 116.418 22.6215 116.496 22.6215C116.635 22.6215 117.079 22.5393 117.188 22.4004C117.22 22.36 117.256 22.3242 117.291 22.2904C117.375 22.208 117.447 22.1375 117.409 22.0403C117.352 21.9014 117.243 21.6783 117.131 21.7077C117.022 21.7331 116.856 21.8173 116.828 21.9288C116.801 22.0403 116.36 21.7331 116.414 21.5687C116.469 21.4024 116.744 21.2635 116.91 21.2909C116.996 21.3049 117.118 21.3852 117.231 21.4598C117.339 21.5305 117.439 21.5961 117.493 21.5961C117.604 21.5961 117.934 21.5139 117.934 21.5139C117.934 21.5139 118.598 20.9073 118.737 20.6843C118.876 20.4612 118.544 20.0737 118.296 20.2401C118.046 20.4064 117.88 20.5727 117.88 20.5727C117.88 20.5727 117.354 20.6549 117.299 20.5179C117.245 20.379 117.715 19.4104 117.964 19.244C118.275 19.0476 118.608 18.888 118.956 18.7685C119.122 18.7411 119.62 18.8233 119.62 18.8233C119.62 18.8233 119.87 19.2127 119.952 19.2949C120.006 19.3485 120.165 19.3555 120.301 19.3615C120.373 19.3647 120.439 19.3676 120.478 19.3771C120.587 19.4045 120.255 19.8213 120.118 19.7919C120.077 19.7844 120.038 19.774 120.001 19.7639L120.001 19.7639L120 19.7639L120 19.7639C119.912 19.7401 119.829 19.7179 119.732 19.7372C119.593 19.7665 119.233 20.0698 119.206 20.1814C119.177 20.2929 119.675 20.8173 119.841 20.7625C119.912 20.739 119.999 20.6543 120.089 20.5652C120.21 20.4466 120.339 20.3203 120.451 20.3203C120.644 20.3203 120.919 20.0698 120.949 19.9876L120.976 19.9054C120.976 19.9054 121.17 19.7939 121.17 19.9054C121.17 20.017 121.142 20.5708 121.142 20.5708C121.303 20.6472 121.47 20.712 121.64 20.7645C121.777 20.7938 121.916 20.6823 121.943 20.516C121.972 20.3516 122.94 20.0737 123.211 20.1305C123.487 20.1853 124.981 20.5747 125.118 20.7117C125.161 20.7545 125.211 20.821 125.266 20.8924C125.388 21.0527 125.529 21.238 125.643 21.238C125.81 21.238 126.169 21.2654 126.28 21.3202C126.312 21.3356 126.367 21.3663 126.432 21.4031C126.602 21.4978 126.844 21.6332 126.943 21.6529C127.081 21.6803 127.384 21.3183 127.109 21.0424C126.979 20.9122 126.855 20.8308 126.757 20.7668C126.648 20.695 126.572 20.6451 126.558 20.5727C126.528 20.4338 126.943 20.6549 127.138 20.7938C127.234 20.8626 127.35 20.8772 127.46 20.891C127.572 20.9051 127.677 20.9184 127.748 20.9876C127.884 21.1245 129.627 21.0971 129.848 21.0697C130.069 21.0424 130.703 20.7664 130.786 20.5727C130.87 20.379 131.311 20.0189 131.532 20.0189C131.532 20.0189 132.28 19.2714 132.362 19.1051C132.446 18.9388 132.474 18.7157 132.225 18.4124C131.975 18.1071 131.782 17.886 131.643 17.7471C131.506 17.6101 130.51 17.7471 130.815 18.0249L130.868 18.0727C131.156 18.3328 131.445 18.5931 131.368 18.8272C131.286 19.0758 130.731 19.9348 129.875 19.9896C129.875 19.9896 129.432 20.0463 129.295 20.1285C129.156 20.2127 128.605 20.0463 128.521 19.9074C128.439 19.7704 128.41 19.6589 128.41 19.6589C128.41 19.6589 126.339 19.5747 126.228 19.4084C126.188 19.3489 126.195 19.2454 126.204 19.1272C126.218 18.919 126.236 18.665 126.007 18.5239C125.647 18.3009 125.177 18.0797 124.956 18.0797C124.735 18.0797 124.209 18.0523 124.321 17.886C124.372 17.8094 124.546 17.8034 124.713 17.7975C124.909 17.7907 125.097 17.7842 125.067 17.6649C125.012 17.4438 124.956 16.9722 125.098 16.8372C125.235 16.6982 126.036 16.256 126.286 16.2834L126.589 16.3382C126.589 16.3382 127.279 16.0603 127.474 16.0603C127.667 16.0603 128.054 16.1992 128.054 16.1992C128.054 16.1992 129.103 16.1992 129.242 16.254C129.379 16.3088 129.738 16.6415 129.822 16.753C129.906 16.8626 130.264 16.6141 130.291 16.4751C130.321 16.3362 130.127 16.0877 129.988 15.9214C129.852 15.755 129.822 15.5887 129.822 15.5887C129.822 15.5887 129.988 15.2287 130.127 15.2561C130.266 15.2834 130.93 15.3108 130.93 15.3108C130.93 15.3108 130.987 15.532 131.372 15.5594C131.372 15.5594 131.456 15.7531 131.372 15.7531C131.29 15.7531 131.151 16.1405 131.372 16.2227C131.592 16.3069 132.505 16.7217 132.643 16.8332C132.78 16.9448 132.81 17.2774 132.81 17.2774C132.81 17.2774 133.445 17.6375 133.747 17.7197C134.052 17.8038 135.019 18.7724 135.019 18.7724L135.047 19.1051C135.047 19.1051 135.408 19.3556 135.49 19.4378C135.574 19.52 136.07 19.1619 135.934 19.0229C135.795 18.884 135.601 18.7177 135.601 18.7177C135.601 18.7177 135.519 18.3302 135.49 18.2187C135.463 18.1091 134.079 17.0289 134.079 17.0289C134.079 17.0289 134.275 16.9448 134.357 17.0563C134.441 17.1679 134.855 17.1131 134.91 17.0289C134.964 16.9448 134.384 16.5573 134.384 16.5573C134.384 16.5573 134.079 16.1131 133.802 16.1131C133.525 16.1131 133.361 16.0583 133.39 15.9468C133.396 15.9213 133.414 15.8969 133.435 15.8692C133.496 15.7866 133.578 15.675 133.435 15.4185C132.758 15.062 132.055 14.7597 131.331 14.5144C131.284 14.0859 131.26 13.6182 131.26 13.1094V7.05113C131.26 3.67171 132.216 2.06517 135.633 2.06517C139.071 2.06517 140.026 3.64823 140.026 7.05113V8.56179H136.451V6.50714C136.451 5.42111 136.428 4.90059 135.633 4.90059C134.859 4.90059 134.836 5.44263 134.836 6.50714V13.6534C134.836 14.716 134.859 15.26 135.633 15.26C136.428 15.26 136.451 14.7395 136.451 13.6534V11.5968H140.026V13.1094ZM128.439 18.6061C128.439 18.7724 128.633 18.9623 128.771 18.9388C128.844 18.9268 128.959 18.8618 129.081 18.7923C129.239 18.7029 129.41 18.6061 129.52 18.6061C129.601 18.6061 129.732 18.6955 129.877 18.7944C130.074 18.9292 130.298 19.0819 130.457 19.0503C130.733 18.9955 130.596 18.4143 130.512 18.3302C130.491 18.309 130.46 18.2712 130.423 18.2247L130.423 18.2247C130.315 18.0911 130.15 17.8866 129.986 17.8038C129.766 17.6923 129.268 17.6923 129.101 17.6923C128.935 17.6923 128.494 17.9408 128.494 18.0249C128.494 18.0599 128.484 18.1374 128.473 18.2281L128.473 18.2281C128.458 18.3556 128.439 18.5089 128.439 18.6061ZM127.216 19.4203L127.216 19.4203L127.217 19.4204L127.217 19.4206C127.263 19.4368 127.303 19.451 127.333 19.4632C127.943 19.7137 127.859 19.1325 127.804 18.9662C127.75 18.7998 127.363 18.7998 127.197 18.7998C127.031 18.7998 126.728 18.8527 126.671 19.0484C126.624 19.211 126.989 19.3399 127.216 19.4203ZM127.333 17.6101C127.499 17.5553 127.554 17.3342 127.554 17.3342C127.8 17.2638 128.05 17.2083 128.302 17.1679C128.441 17.1679 128.386 16.8078 128.302 16.6963C128.22 16.5847 127.695 16.4184 127.556 16.391C127.417 16.3636 127.197 16.5867 127.197 16.6963C127.197 16.8058 127.085 16.8332 127.001 16.7784C126.919 16.7237 126.448 16.7491 126.339 16.8058C126.23 16.8626 126.007 17.1111 125.868 17.2774C125.731 17.4438 125.813 17.6375 125.952 17.749C126.091 17.8586 126.562 17.9975 126.671 17.9975C126.729 17.9975 126.865 17.9043 127.004 17.8083C127.128 17.7231 127.255 17.6359 127.333 17.6101ZM132.53 19.1873C132.556 19.1051 132.753 18.9388 132.917 18.9662C133.249 19.021 133.112 19.7411 133.058 19.88C133.003 20.0189 132.45 20.4886 132.45 20.4886L131.897 20.5727C131.702 20.6001 131.647 20.3242 131.702 20.2401C131.757 20.1559 132.339 19.6295 132.448 19.5473C132.521 19.4912 132.521 19.3864 132.521 19.2985C132.521 19.2545 132.521 19.2147 132.53 19.1873ZM133.802 19.4377C133.802 19.4377 133.665 19.2166 133.554 19.1599C133.458 19.1111 133.466 18.8799 133.471 18.7627L133.472 18.7307L133.472 18.7157C133.472 18.6315 133.277 18.4946 133.277 18.4946C133.277 18.4946 133.306 18.1913 133.497 18.1913C133.689 18.1913 133.995 18.3028 134.107 18.4124C134.15 18.4545 134.204 18.4969 134.257 18.5378L134.257 18.5378L134.257 18.5378C134.341 18.6033 134.421 18.6651 134.439 18.7157C134.466 18.7979 134.88 19.2147 134.88 19.2147L134.964 19.9348C134.964 19.9348 134.355 20.5981 133.777 20.739C133.196 20.876 132.755 20.876 132.755 20.739C132.755 20.6425 132.955 20.5064 133.105 20.4041L133.105 20.4041C133.171 20.359 133.227 20.3205 133.253 20.2948C133.331 20.2126 133.802 19.5747 133.802 19.4377ZM130.817 20.9601L130.071 21.3202C129.991 21.3593 129.56 21.3426 129.229 21.3299C129.096 21.3247 128.979 21.3202 128.908 21.3202C128.66 21.3202 128.605 21.7644 129.047 21.8192C129.488 21.874 130.373 21.8466 130.567 21.8192C130.762 21.7898 131.231 21.2654 131.258 21.1813C131.286 21.0971 131.258 20.9601 130.817 20.9601ZM130.899 22.7037C130.762 22.8426 131.038 23.1185 131.176 23.2301C131.315 23.3416 132.032 23.5627 132.143 23.5627C132.156 23.5627 132.171 23.5631 132.186 23.5635C132.303 23.5665 132.476 23.5709 132.476 23.4238C132.476 23.3962 132.475 23.3671 132.474 23.3378C132.47 23.1909 132.466 23.0409 132.558 23.0637C132.669 23.0911 132.919 23.2007 132.944 23.2848L132.974 23.367L133.028 23.9776C133.028 23.9776 133.331 24.0323 133.472 24.0891C133.609 24.1439 134.052 24.1713 134.134 24.1165C134.218 24.0617 134.355 23.868 134.33 23.7564C134.3 23.6449 134.134 23.5353 134.134 23.5353C134.134 23.5353 134.134 23.1753 134.107 23.0363C134.078 22.8994 133.085 22.2888 132.835 22.234C132.587 22.1792 132.284 22.1792 132.2 22.2614C132.118 22.3436 131.757 22.3436 131.647 22.3436C131.596 22.3436 131.562 22.4112 131.527 22.4827C131.487 22.5633 131.445 22.6489 131.372 22.6489C131.233 22.6489 130.899 22.7037 130.899 22.7037ZM131.59 24.0891C131.569 24.2437 130.956 24.365 130.457 24.365C129.961 24.365 129.436 24.2006 129.52 23.9502C129.602 23.7016 130.155 23.1479 130.348 23.1479C130.543 23.1479 130.819 23.1753 130.957 23.3964C131.014 23.4879 131.137 23.5888 131.26 23.6896C131.433 23.8322 131.607 23.9744 131.59 24.0891ZM136.484 22.9248C136.365 22.9972 136.567 23.2301 136.678 23.2574C136.728 23.2697 136.744 23.3207 136.761 23.376C136.783 23.4443 136.807 23.5191 136.899 23.5353C137.065 23.5647 137.258 23.3142 137.258 23.1479C137.258 22.9815 137.258 22.7604 137.121 22.733C136.981 22.7037 136.621 22.8426 136.484 22.9248ZM138.667 22.2888C138.651 22.2926 138.633 22.2973 138.614 22.3025C138.463 22.3426 138.214 22.4089 138.141 22.2614C138.059 22.0951 137.809 21.5413 137.864 21.4317C137.918 21.3222 138.169 21.1832 138.278 21.2928C138.389 21.4024 139.026 22.2047 138.667 22.2888ZM137.506 23.506C137.36 23.5334 137.311 23.7545 137.311 23.9208C137.311 24.0871 137.311 24.3357 137.506 24.3631C137.667 24.3858 137.79 24.3519 137.891 24.324L137.891 24.324C137.911 24.3183 137.931 24.3129 137.95 24.3083C138.059 24.2809 138.225 24.1987 138.169 24.0597C138.114 23.9228 137.809 23.4512 137.506 23.506ZM139.026 23.1459C138.858 23.1322 138.831 23.4786 138.831 23.6449C138.831 23.6861 138.827 23.7306 138.824 23.7756C138.814 23.9122 138.803 24.0527 138.886 24.1145C138.912 24.1345 138.948 24.1559 138.985 24.1785L138.985 24.1786L138.985 24.1786C139.106 24.2515 139.246 24.3362 139.163 24.4198C139.052 24.5313 138.694 24.6409 138.637 24.4746C138.581 24.3083 138.333 24.4198 138.305 24.5568L138.289 24.6357L138.289 24.6357C138.252 24.8141 138.186 25.1354 138.139 25.2769C138.085 25.4413 137.696 26.0518 137.393 26.1633C137.088 26.2729 137.006 26.3844 137.088 26.5508C137.172 26.7171 137.393 26.8286 137.67 26.7993C137.948 26.7699 138.499 26.6056 138.608 26.494C138.718 26.3825 139.052 26.1066 139.218 26.134C139.384 26.1614 139.577 26.2729 139.632 26.4118C139.65 26.4579 139.662 26.4979 139.674 26.535C139.696 26.6082 139.715 26.6698 139.771 26.7425C139.853 26.8541 140.13 26.494 140.103 26.3551C140.073 26.2162 139.991 25.7172 140.019 25.5802C140.048 25.4413 140.048 24.9442 140.048 24.9442C140.048 24.9442 139.687 24.5842 139.687 24.4452C139.687 24.3717 139.671 24.2048 139.657 24.0478L139.657 24.0478V24.0477C139.644 23.9083 139.632 23.7767 139.632 23.7251C139.634 23.6175 139.356 23.1753 139.026 23.1459ZM134.273 27.3824C134.05 27.2983 133.923 27.0087 134.077 26.8834C134.134 26.835 134.204 26.8045 134.278 26.7958C134.352 26.7871 134.427 26.8005 134.494 26.8345C134.63 26.8893 135.461 27.222 135.681 27.4157C135.796 27.5167 136.069 27.8062 136.315 28.0678L136.315 28.0678L136.315 28.0678L136.315 28.0678C136.542 28.3078 136.746 28.5244 136.785 28.5506C136.869 28.6074 136.897 28.3021 136.869 28.1632C136.84 28.0262 136.48 27.6114 136.371 27.4998C136.262 27.3883 136.123 26.8619 136.564 27.0283C137.006 27.1946 137.67 28.0517 137.67 28.0517V28.3569C137.67 28.4939 137.973 28.7444 137.973 28.7444C137.973 28.7444 138.057 30.8479 138.002 31.3176C137.948 31.7892 135.431 33.2548 135.238 33.2842C135.045 33.3096 133.415 33.2548 133.22 33.1726C133.028 33.0885 132.198 32.4251 132.198 32.4251C132.198 32.4251 132.448 32.1199 132.557 32.0651C132.669 32.0103 132.587 31.6228 132.587 31.6228C132.587 31.6228 132.698 31.5113 132.864 31.4839C133.03 31.4565 133.308 31.5661 133.362 31.6776C133.385 31.7247 133.394 31.7766 133.402 31.827C133.413 31.8962 133.424 31.9628 133.472 32.0103C133.554 32.0925 134.134 31.8988 134.134 31.8988H134.853C134.99 31.8988 135.24 31.5661 135.24 31.5661C135.24 31.5661 135.351 31.5661 135.488 31.6209C135.627 31.6757 135.709 31.3998 135.543 31.343C135.377 31.2863 135.211 30.9008 135.377 30.8166C135.431 30.789 135.494 30.7616 135.56 30.7333C135.694 30.6754 135.836 30.6137 135.93 30.5388C136.066 30.4272 136.066 29.7345 135.9 29.486C135.765 29.2795 135.647 29.1674 135.564 29.0884L135.564 29.0884L135.549 29.0747C135.537 29.0631 135.526 29.0522 135.515 29.0418C135.45 28.9764 135.186 28.8627 134.954 28.7629C134.887 28.7342 134.823 28.7067 134.767 28.6818C134.519 28.5722 134.628 28.1006 134.712 28.1006C134.796 28.1006 134.988 28.126 135.099 28.1554C135.211 28.1847 135.32 27.9343 135.211 27.9069C135.106 27.8808 134.926 27.704 134.837 27.6162L134.824 27.6036C134.767 27.545 134.629 27.5007 134.476 27.4514L134.476 27.4514C134.41 27.4299 134.34 27.4074 134.273 27.3824ZM118.987 35.2175C118.871 35.1601 118.823 35.2775 118.771 35.4033C118.746 35.4662 118.719 35.5312 118.682 35.5776C118.645 35.625 118.598 35.6723 118.552 35.7186L118.552 35.7186C118.463 35.8079 118.378 35.8928 118.378 35.965C118.378 36.0746 118.489 36.2429 118.628 36.2429C118.728 36.2429 118.741 36.405 118.751 36.5251C118.755 36.5692 118.758 36.6077 118.765 36.6303C118.792 36.7125 119.067 36.8241 119.124 36.7419C119.162 36.6839 119.187 36.4947 119.209 36.3379C119.218 36.2673 119.227 36.2032 119.235 36.1607C119.265 36.0218 119.265 35.6069 119.265 35.4973C119.265 35.3878 119.097 35.2723 118.987 35.2175ZM116.526 33.4446V34.11C116.526 34.1588 116.6 34.2631 116.668 34.3581C116.717 34.4266 116.762 34.4903 116.774 34.5248C116.801 34.607 117.161 34.8555 117.217 34.7459C117.274 34.6363 117.411 34.4133 117.465 34.3311C117.52 34.2489 117.934 34.0004 117.934 34.0004C117.934 34.0004 118.571 33.7519 118.571 33.6129C118.571 33.474 118.239 32.975 118.155 32.9202C118.116 32.8938 117.814 33.0084 117.473 33.1372C117.107 33.2756 116.698 33.4305 116.526 33.4446ZM116.996 33.0298C117.006 33.1531 116.719 33.3057 116.526 33.2509C116.332 33.1961 116.195 33.1394 116.195 32.975C116.195 32.8087 116.361 32.5876 116.444 32.5602C116.526 32.5328 116.967 32.6991 116.996 33.0298ZM120.478 32.2001C120.454 32.3938 120.755 32.5308 120.865 32.5034C120.906 32.4932 120.955 32.4674 121.006 32.4406L121.006 32.4406C121.091 32.3955 121.183 32.3473 121.252 32.3645L121.254 32.3652C121.363 32.3923 121.473 32.42 121.584 32.5034C121.695 32.5876 121.861 32.6423 122.027 32.6423C122.191 32.6423 122.412 32.4486 122.441 32.3371C122.458 32.2674 122.54 32.2199 122.619 32.174C122.667 32.1464 122.713 32.1194 122.744 32.0886C122.828 32.0044 122.662 31.7559 122.551 31.7285C122.439 31.7011 122.053 31.6737 121.859 31.6737C121.664 31.6737 121.388 31.7011 121.361 31.7853C121.357 31.7956 121.354 31.8072 121.35 31.8196C121.323 31.9057 121.285 32.0269 121.14 31.979C120.974 31.9242 120.753 31.8401 120.753 31.8401C120.753 31.8401 120.507 31.979 120.478 32.2001ZM120.728 31.2589C120.728 31.2589 120.644 31.5641 120.562 31.6189C120.537 31.6353 120.485 31.6616 120.422 31.6934L120.422 31.6934C120.274 31.768 120.067 31.8728 120.009 31.9496C119.927 32.0612 119.677 32.1708 119.374 32.0612L119.29 32.0304C119.023 31.9337 118.806 31.8546 118.655 31.7305C118.57 31.6603 118.507 31.6327 118.458 31.6115C118.412 31.5913 118.379 31.5768 118.352 31.5367C118.298 31.4546 118.434 31.1219 118.655 31.1219C118.729 31.1219 118.802 31.128 118.876 31.1341C119.024 31.1462 119.172 31.1584 119.319 31.1219C119.54 31.0671 119.567 30.9008 119.567 30.9008C119.567 30.9008 120.232 30.846 120.368 30.8714C120.493 30.896 120.595 31.0538 120.694 31.206L120.728 31.2589ZM118.212 32.0612C118.189 32.2789 117.974 32.3059 117.789 32.3289C117.763 32.3322 117.738 32.3354 117.713 32.339C117.52 32.3664 117.188 32.3664 117.051 32.2275C116.979 32.1564 116.855 32.0775 116.737 32.0024C116.628 31.9327 116.524 31.8663 116.471 31.8127C116.361 31.7011 116.498 31.2863 116.746 31.3411C116.899 31.3745 117.041 31.4496 117.153 31.5092C117.225 31.5472 117.285 31.5789 117.329 31.5896C117.44 31.617 117.854 31.617 117.854 31.617C117.854 31.617 118.241 31.7853 118.212 32.0612ZM126.2 27.9088C126.213 27.9574 126.213 28.05 126.213 28.1513C126.213 28.3315 126.213 28.539 126.284 28.5741C126.32 28.5919 126.342 28.6099 126.36 28.6251C126.397 28.6567 126.42 28.6761 126.532 28.6563C126.698 28.6289 126.976 28.2963 126.976 28.2963C126.976 28.2963 127.224 28.2963 127.197 28.3784C127.178 28.432 127.1 28.5328 127.034 28.6198L127.034 28.6199C126.998 28.6665 126.966 28.7092 126.947 28.7385C126.892 28.8207 126.947 29.1259 127.058 29.1533C127.169 29.1807 127.308 29.4019 127.224 29.5134C127.194 29.5544 127.152 29.5841 127.113 29.612C127.046 29.6599 126.986 29.7027 127.003 29.7893C127.033 29.9282 127.087 30.0378 127.169 30.0672C127.253 30.0946 127.64 30.1787 127.697 30.0946C127.753 30.0104 127.724 29.6797 127.724 29.6797C127.724 29.6797 128.027 29.4019 128.056 29.2355C128.084 29.0692 127.945 27.492 127.945 27.492C127.945 27.492 127.392 26.633 127.199 26.633C127.003 26.633 126.646 26.7719 126.589 26.8815C126.544 26.9681 126.553 27.264 126.559 27.4527C126.56 27.5027 126.562 27.5451 126.562 27.5742C126.562 27.6465 126.459 27.7034 126.363 27.7566C126.272 27.8072 126.187 27.8545 126.2 27.9088ZM125.343 27.3002C125.534 27.3648 125.591 27.5762 125.591 27.7425V28.4626C125.591 28.4626 125.286 28.8226 125.261 28.9048C125.253 28.9249 125.255 28.9581 125.256 29.0003C125.261 29.1309 125.269 29.3467 125.04 29.5154C124.735 29.7365 124.209 29.7365 124.209 29.6269C124.209 29.5723 124.285 29.4693 124.361 29.3658C124.437 29.2614 124.514 29.1565 124.514 29.1005C124.514 28.989 124.762 28.6563 124.762 28.6563C124.762 28.6563 124.708 28.0751 124.762 27.9636C124.781 27.9254 124.819 27.8843 124.862 27.8389C124.943 27.7515 125.04 27.6481 125.04 27.5194C125.04 27.3276 125.178 27.2435 125.343 27.3002ZM123.768 26.5253C123.547 26.496 123.49 26.6075 123.436 26.7191C123.381 26.8306 123.133 27.0791 123.133 27.0791C123.133 27.0791 123.217 27.3276 122.996 27.5507C122.775 27.7718 122.193 28.353 122.029 28.4645C121.987 28.4931 121.938 28.5216 121.891 28.55C121.751 28.6324 121.613 28.7143 121.613 28.7972C121.613 28.9068 121.808 29.2942 122 29.2394C122.193 29.1847 122.359 29.1279 122.58 28.9909C122.801 28.854 122.885 28.7424 122.885 28.7424C122.885 28.7424 123.106 28.7424 123.022 28.854C122.94 28.9596 122.94 29.349 122.94 29.349C122.94 29.349 122.412 29.848 122.193 30.0124C122.036 30.1311 121.863 30.207 121.717 30.2713L121.717 30.2713C121.658 30.2971 121.604 30.321 121.556 30.345C121.39 30.4292 121.279 31.1199 121.529 31.0925C121.736 31.0697 122.078 30.9505 122.281 30.8797L122.281 30.8797C122.322 30.8654 122.357 30.8532 122.385 30.844C122.549 30.7892 122.994 30.345 122.994 30.345C122.994 30.345 123.27 30.345 123.324 30.2335C123.34 30.2021 123.403 30.092 123.487 29.9474L123.487 29.9472L123.487 29.9472L123.487 29.9471L123.487 29.9469C123.701 29.5774 124.043 28.9836 124.043 28.9048C124.043 28.7952 124.073 28.4352 124.073 28.4352C124.073 28.4352 124.321 28.2141 124.321 28.1025C124.321 28.0169 124.191 27.8342 124.08 27.6787C124.046 27.6318 124.014 27.5873 123.989 27.5488C123.989 27.5488 124.018 26.7171 124.018 26.6349C124.018 26.5527 123.768 26.5253 123.768 26.5253ZM115.117 26.5801C115.051 26.5699 114.984 26.5838 114.928 26.6195C114.872 26.6551 114.831 26.71 114.812 26.7739C114.785 26.8854 114.509 27.1887 114.509 27.1887C114.509 27.1887 114.425 28.2963 114.48 28.4352C114.503 28.4942 114.567 28.533 114.632 28.5731C114.72 28.6273 114.812 28.6837 114.812 28.7952C114.812 28.989 114.951 29.2923 114.951 29.2923C114.951 29.2923 115.199 29.4586 115.228 29.5975C115.256 29.7345 115.863 30.2609 115.945 30.2609C115.954 30.2609 115.986 30.2615 116.038 30.2624L116.039 30.2624H116.039C116.502 30.2704 118.481 30.3045 118.655 30.2061C118.745 30.1543 118.841 30.0847 118.934 30.0168C119.042 29.9386 119.146 29.8627 119.235 29.8187C119.401 29.7345 119.706 29.6249 119.706 29.6249C119.706 29.6249 120.036 29.5134 120.036 29.3197C120.036 29.1259 119.595 28.9596 119.456 28.9596C119.397 28.9596 119.305 28.9961 119.208 29.0352C119.08 29.0861 118.941 29.1415 118.849 29.1259C118.684 29.0986 118.186 28.7952 118.186 28.7952C118.186 28.7952 117.331 28.7111 117.219 28.7659C117.193 28.779 117.156 28.8001 117.116 28.8238L117.116 28.8238C116.987 28.8992 116.812 29.0013 116.748 28.9596C116.729 28.947 116.709 28.9358 116.689 28.9247C116.621 28.8877 116.555 28.8517 116.555 28.7659C116.555 28.7305 116.558 28.6896 116.561 28.6467C116.567 28.5545 116.574 28.4532 116.555 28.3784C116.528 28.2669 116.223 28.1847 116.223 28.1847L115.31 27.1046C115.31 27.1065 115.42 26.6349 115.117 26.5801ZM116.719 25.9422C116.801 26.0244 116.801 26.3023 116.719 26.2749C116.671 26.2592 116.552 26.2436 116.432 26.2279C116.343 26.2162 116.253 26.2044 116.193 26.1927C116.148 26.1836 116.093 26.1806 116.039 26.1775H116.039C115.929 26.1714 115.824 26.1655 115.807 26.1105C115.796 26.0807 115.793 26.0287 115.79 25.968C115.784 25.8613 115.776 25.7274 115.723 25.6389C115.641 25.5 115.42 25.2788 115.42 25.2788C115.42 25.2788 115.447 24.8347 115.475 24.7525C115.502 24.6703 115.807 24.5861 115.918 24.6977L115.918 24.6977L115.918 24.6977C116.029 24.8092 116.139 24.9188 116.195 25.0029C116.252 25.0871 116.223 25.3356 116.223 25.3356L116.719 25.9422ZM132.364 29.7639C132.696 29.8187 132.933 29.5095 132.974 29.4038C132.995 29.3486 132.913 29.2891 132.824 29.2252C132.689 29.1284 132.54 29.0216 132.722 28.9048C132.806 28.85 133.273 28.6544 133.468 28.5996C133.663 28.5448 133.441 28.2963 133.304 28.2689C133.165 28.2395 132.778 28.2963 132.585 28.351C132.391 28.4058 131.95 28.7091 131.921 28.8207C131.895 28.9322 131.866 29.1807 131.866 29.3197C131.866 29.4586 132.032 29.7091 132.364 29.7639ZM131.757 28.6543C131.757 28.85 131.674 29.2649 131.674 29.2649C131.674 29.2649 131.204 29.2375 131.092 29.2081C130.981 29.1788 130.897 28.9303 130.926 28.8481C130.988 28.7075 131.084 28.584 131.204 28.488L131.243 28.4562C131.377 28.3492 131.544 28.2154 131.645 28.2669C131.757 28.3236 131.757 28.4606 131.757 28.6543ZM131.977 32.339C132.089 32.2823 132.339 31.979 132.339 31.979C132.339 31.979 132.393 31.6757 132.393 31.5915C132.393 31.5074 132.341 31.4252 132.229 31.4252C132.118 31.4252 131.731 31.6757 131.702 31.7579C131.674 31.84 131.674 32.0905 131.674 32.2001C131.674 32.3116 131.866 32.3958 131.977 32.339ZM134.933 33.834C135.074 33.7499 135.211 33.8888 135.211 33.8888C135.257 33.9987 135.272 34.1196 135.252 34.2374C135.233 34.3552 135.181 34.465 135.101 34.5541C134.964 34.7205 134.357 34.9142 133.886 34.9416C133.415 34.969 132.255 34.7753 132.143 34.6637C132.05 34.5702 131.784 34.4397 131.634 34.3664C131.606 34.3523 131.581 34.3403 131.563 34.3311C131.452 34.2743 131.452 34.0825 131.452 33.9436C131.452 33.8047 131.784 33.6657 131.839 33.7499C131.893 33.834 131.975 33.8614 132.225 33.8888C132.474 33.9162 132.972 34.0004 133.138 34.0552C133.257 34.0944 133.703 34.0774 134.037 34.0646H134.037L134.037 34.0646C134.169 34.0595 134.283 34.0552 134.353 34.0552C134.575 34.0552 134.753 33.9453 134.886 33.8632C134.902 33.853 134.918 33.8431 134.933 33.834ZM132.475 37.2663C132.282 37.1567 132.364 36.963 132.475 36.8514C132.475 36.8514 132.72 36.8221 132.942 36.8221C133.082 36.8221 133.221 36.8659 133.346 36.9053C133.42 36.9288 133.49 36.9508 133.552 36.961C133.655 36.9781 133.952 36.8669 134.201 36.7735L134.201 36.7735C134.352 36.7169 134.486 36.6668 134.548 36.6558C134.714 36.6284 134.851 37.0158 134.796 37.1547C134.742 37.2937 133.966 37.8455 133.745 37.8748C133.641 37.8879 133.48 37.9009 133.319 37.914C133.141 37.9283 132.964 37.9427 132.862 37.957C132.667 37.9844 132.667 37.6244 132.778 37.6537C132.89 37.6811 132.974 37.46 132.89 37.4326C132.874 37.4274 132.856 37.4221 132.837 37.4162C132.753 37.3912 132.632 37.355 132.475 37.2663ZM131.37 37.0432C131.674 37.0999 131.905 36.9943 132.007 36.7947C132.091 36.6254 131.935 36.5187 131.777 36.41C131.678 36.3415 131.577 36.2723 131.534 36.1861C131.422 35.963 131.118 35.8241 131.008 35.9083C130.899 35.9924 130.787 36.2429 130.787 36.3798C130.787 36.5168 130.871 36.6831 130.983 36.7105C131.024 36.7214 131.046 36.7623 131.073 36.8122C131.118 36.8968 131.178 37.0075 131.37 37.0432ZM128.496 33.834C128.523 34.1099 129.049 34.4426 129.379 34.3311C129.379 34.3311 129.377 33.9984 129.322 33.8321C129.268 33.6657 129.545 33.472 129.82 33.611C130.002 33.7027 130.258 33.6493 130.482 33.6025C130.597 33.5785 130.703 33.5562 130.787 33.5562C131.038 33.5562 131.01 33.3624 130.899 33.335C130.789 33.3076 130.651 33.0591 130.678 32.9476C130.705 32.8465 130.502 32.8145 130.34 32.789L130.291 32.7813C130.125 32.7539 129.6 32.6991 129.379 32.6991C129.226 32.6991 128.992 32.899 128.818 33.0488C128.741 33.1148 128.675 33.171 128.633 33.1961C128.496 33.2803 128.467 33.5562 128.496 33.834ZM129.158 31.0358C129.408 30.8988 129.484 30.6581 129.324 30.5388C129.213 30.4566 129.078 30.4566 128.994 30.484C128.91 30.5114 128.33 30.7873 128.191 30.981C128.054 31.1767 128.414 31.5641 128.523 31.48L128.561 31.4504C128.689 31.3518 128.935 31.1606 129.158 31.0358ZM124.1 34.47C124.045 34.5522 123.797 34.607 123.686 34.47C123.574 34.333 123.686 34.0825 123.768 34.0278C123.801 34.0054 123.843 33.9318 123.889 33.8491C123.961 33.7217 124.045 33.5728 124.129 33.5562C124.266 33.5268 124.735 33.5268 124.764 33.6384C124.792 33.7479 124.735 34.0806 124.68 34.1921C124.626 34.3037 124.295 34.3037 124.295 34.3037C124.295 34.3037 124.155 34.3859 124.1 34.47ZM122.835 33.5323L122.828 33.5288C122.662 33.4446 122.279 33.9182 122.279 33.9182C122.279 33.9182 121.781 33.834 121.67 33.9456C121.558 34.0552 121.31 34.0845 121.226 34.0845C121.181 34.0845 121.12 34.0432 121.051 33.9967C120.993 33.958 120.93 33.9157 120.867 33.8908C120.753 33.8435 120.195 33.894 119.645 33.9439L119.645 33.9439L119.644 33.944C119.534 33.9539 119.425 33.9639 119.319 33.973C118.757 34.0215 118.475 34.2649 118.322 34.3974L118.322 34.3975L118.321 34.3979C118.302 34.4148 118.284 34.43 118.268 34.4426C118.13 34.5541 118.132 34.7479 118.241 34.9142C118.325 35.0423 118.477 34.9243 118.604 34.8249C118.642 34.7952 118.678 34.7672 118.71 34.7479C118.847 34.6637 119.317 34.6363 119.595 34.6363C119.87 34.6363 120.034 35.0257 119.98 35.1079C119.925 35.1901 119.65 35.4954 119.65 35.4954L119.595 36.0765C119.595 36.0765 119.374 36.3544 119.374 36.464C119.374 36.5736 119.622 36.7673 119.622 36.7673C119.622 36.7673 119.651 37.2115 119.734 37.2389C119.818 37.2641 119.895 37.3122 119.954 37.3778C120.036 37.46 120.368 37.46 120.589 37.4326C120.81 37.4052 120.839 37.1547 120.673 37.1273C120.554 37.1077 120.52 37.0457 120.48 36.9711L120.48 36.971C120.464 36.9417 120.447 36.9103 120.423 36.8788C120.341 36.7673 120.146 36.601 120.146 36.601C120.146 36.601 120.507 35.9376 120.671 35.8809C120.747 35.8558 120.951 35.6798 121.178 35.4831C121.447 35.2499 121.751 34.9876 121.916 34.9122C122.015 34.8672 122.139 34.819 122.263 34.7706L122.263 34.7706L122.263 34.7706C122.516 34.6718 122.772 34.5723 122.828 34.4974C122.85 34.4682 122.886 34.4258 122.93 34.3761C123.051 34.2363 123.222 34.039 123.242 33.9162C123.269 33.7525 122.984 33.6077 122.835 33.5323ZM115.975 26.3845C115.861 26.4099 115.697 26.5782 115.725 26.6623C115.735 26.6902 115.735 26.7436 115.735 26.8065C115.735 26.9291 115.735 27.0876 115.809 27.1613C115.861 27.214 115.994 27.3406 116.133 27.4741C116.289 27.6231 116.454 27.7807 116.528 27.854C116.666 27.993 116.748 28.2141 116.748 28.2141C116.748 28.2141 118.268 28.4352 118.409 28.353C118.546 28.2708 118.796 28.0477 118.796 28.0477C118.796 28.0477 118.407 27.5762 118.266 27.5214C118.213 27.5002 118.131 27.4872 118.041 27.4729L118.041 27.4729C117.898 27.4502 117.733 27.4242 117.631 27.357C117.465 27.2474 116.967 26.9969 116.801 26.9421C116.635 26.8874 116.498 26.7484 116.442 26.6643C116.387 26.5801 116.223 26.3297 115.975 26.3845ZM117.825 26.2749C117.788 26.2908 117.772 26.3347 117.755 26.3813C117.73 26.4495 117.703 26.5234 117.604 26.5234C117.438 26.5234 117.383 26.496 117.274 26.4412C117.164 26.3864 117.053 26.3042 117.024 26.2201C116.996 26.1379 116.969 25.7759 116.969 25.7759C116.969 25.7759 116.721 25.5 116.637 25.4158C116.555 25.3336 116.582 25.0851 116.692 25.0284C116.803 24.9736 116.912 24.8347 116.887 24.7231C116.85 24.6069 116.84 24.4838 116.858 24.3631C116.885 24.2554 117.274 24.0891 117.274 24.0891C117.274 24.0891 117.522 24.2006 117.551 24.1165C117.579 24.0343 117.522 23.3964 117.522 23.3964C117.522 23.3964 117.854 23.2027 117.854 23.0657V22.7056C117.854 22.7056 118.489 22.3456 118.655 22.2614C118.821 22.1773 118.794 21.9014 118.794 21.9014C118.794 21.9014 119.235 21.4591 119.374 21.4317C119.511 21.4044 119.816 21.4044 119.9 21.4865C119.984 21.5687 120.036 21.9307 120.036 21.9307L119.706 22.0971C119.706 22.0971 119.485 22.373 119.401 22.4845C119.383 22.5102 119.359 22.5462 119.332 22.5879C119.241 22.7272 119.108 22.9314 118.958 23.0383C118.869 23.1019 118.752 23.1482 118.645 23.1903C118.519 23.2402 118.407 23.2841 118.378 23.3436C118.332 23.4376 118.344 24.1217 118.349 24.3995L118.349 24.3996C118.35 24.4512 118.35 24.4888 118.35 24.5059C118.35 24.6155 118.13 24.8386 118.073 24.6448C118.016 24.4511 117.823 24.5901 117.768 24.7838C117.725 24.9356 117.75 25.3424 117.762 25.5517C117.766 25.6094 117.768 25.652 117.768 25.6702C117.768 25.7544 117.964 25.8639 117.964 25.8639C117.964 25.8639 118.018 26.1927 117.825 26.2749ZM118.323 26.2749C118.323 26.2749 118.102 26.1927 118.02 26.3297C117.988 26.3834 117.951 26.4246 117.918 26.4613C117.867 26.5195 117.825 26.5666 117.825 26.6349C117.825 26.7465 117.991 27.1339 117.991 27.1339L118.407 27.355C118.407 27.355 119.069 27.7973 119.208 27.8814C119.345 27.9636 121.308 27.8814 121.365 27.7425C121.386 27.6885 121.391 27.6126 121.395 27.5388C121.402 27.4253 121.409 27.3168 121.476 27.3002C121.498 27.2949 121.535 27.2874 121.58 27.2779L121.58 27.2779C121.77 27.239 122.118 27.1673 122.25 27.0791C122.271 27.0651 122.298 27.048 122.33 27.0279C122.548 26.8912 122.976 26.6218 123.024 26.3316C123.078 26.0009 122.996 25.5567 122.996 25.5567C122.996 25.5567 122.359 25.0029 122.193 24.9755C122.027 24.9481 121.281 24.8934 121.087 24.9755C120.894 25.0577 120.673 25.6135 120.755 25.723C120.792 25.7717 120.881 25.8253 120.968 25.8772C121.079 25.9441 121.186 26.0083 121.17 26.0557C121.142 26.1379 120.894 26.1672 120.894 26.1672C120.894 26.1672 120.312 26.1398 120.202 25.8894C120.093 25.6389 120.232 25.0871 120.232 25.0871C120.232 25.0871 120.978 24.6429 121.144 24.6429C121.31 24.6429 122.223 24.6977 122.223 24.6977C122.223 24.6977 122.359 24.5861 122.334 24.4492C122.305 24.3122 122.637 24.367 122.777 24.4492C122.85 24.4929 122.971 24.5923 123.093 24.6924C123.201 24.7802 123.308 24.8686 123.385 24.9208C123.392 24.9258 123.4 24.9307 123.407 24.9357C123.418 24.9429 123.429 24.95 123.439 24.9571C123.589 25.0568 123.744 25.1599 123.744 25.3082C123.744 25.356 123.742 25.4313 123.739 25.517L123.739 25.5171C123.732 25.7293 123.724 26.005 123.744 26.0831C123.772 26.1946 124.077 26.3884 124.213 26.2768C124.352 26.1653 124.546 25.9716 124.546 25.8052C124.546 25.7517 124.54 25.6866 124.534 25.6192C124.522 25.4774 124.508 25.3258 124.546 25.2515C124.6 25.1419 124.682 25.2515 124.682 25.2515C124.682 25.2515 124.737 26.1379 124.712 26.2494C124.682 26.361 124.657 26.5801 124.657 26.6643C124.657 26.7484 125.071 26.8854 125.126 26.7191C125.157 26.6226 125.181 26.5354 125.2 26.4631L125.2 26.4631C125.214 26.4107 125.226 26.3661 125.237 26.3316C125.299 26.2308 125.373 26.1381 125.458 26.0557H125.597C125.597 26.0557 125.597 25.4745 125.458 25.4178C125.321 25.363 125.126 25.2241 125.126 25.1419C125.126 25.0597 125.098 24.864 125.098 24.864C125.098 24.864 124.352 24.8366 124.325 24.7251C124.297 24.6135 124.243 24.3376 124.243 24.3376C124.243 24.3376 123.358 23.6743 123.246 23.5627C123.158 23.474 122.806 23.3853 122.567 23.3251C122.506 23.3097 122.452 23.2961 122.412 23.2849C122.219 23.2301 122.082 23.1753 122.082 23.1753C122.082 23.1753 122.082 22.9796 122.275 23.0637C122.469 23.1459 122.801 23.2575 122.94 23.2575C122.968 23.2575 123.011 23.2621 123.062 23.2677C123.26 23.2891 123.575 23.3233 123.575 23.1459C123.575 23.0991 123.577 23.0536 123.579 23.0108C123.588 22.8496 123.594 22.7253 123.463 22.7037C123.443 22.7004 123.415 22.696 123.38 22.6905L123.367 22.6884L123.367 22.6884C123.101 22.6469 122.505 22.5537 122.385 22.4826C122.246 22.4004 121.804 22.371 121.554 22.4552C121.306 22.5373 120.974 22.7604 121.003 22.8994C121.031 23.0363 121.222 23.1479 121.445 23.1479C121.668 23.1479 121.943 23.1772 121.943 23.1772C121.943 23.1772 121.861 23.5373 121.556 23.5647C121.454 23.5739 121.32 23.5769 121.182 23.58C120.912 23.5861 120.626 23.5925 120.535 23.6469C120.486 23.6758 120.438 23.7257 120.391 23.7732C120.306 23.8606 120.228 23.9402 120.175 23.868C120.136 23.8163 120.133 23.7234 120.13 23.6275C120.127 23.5165 120.123 23.4014 120.064 23.3416C119.952 23.232 119.761 23.369 119.62 23.4805C119.484 23.5921 119.04 24.0343 119.04 24.0343C119.04 24.0343 119.095 24.504 119.011 24.5607C118.929 24.6155 118.763 24.6996 118.763 24.6996C118.763 24.6996 118.817 25.3082 118.79 25.5019C118.763 25.6957 118.763 25.8894 118.79 26.0283C118.817 26.1672 119.398 26.7484 119.564 26.8032C119.73 26.858 119.648 26.9969 119.427 26.9695C119.206 26.9421 118.626 26.6095 118.542 26.5273C118.514 26.4971 118.499 26.4606 118.484 26.4248C118.457 26.3584 118.431 26.2939 118.323 26.2749ZM124.376 22.3162C124.25 22.4415 124.127 22.7878 124.376 22.9248C124.479 22.983 124.588 23.0267 124.686 23.066C124.822 23.1205 124.936 23.1664 124.985 23.2301C125.014 23.2693 125.039 23.3154 125.064 23.3597C125.109 23.4415 125.151 23.5176 125.206 23.5353C125.239 23.5465 125.31 23.5486 125.387 23.5508C125.499 23.5541 125.625 23.5577 125.675 23.5901C125.757 23.6449 126.007 23.6175 126.062 23.5353C126.089 23.4942 126.31 23.4942 126.527 23.4942C126.745 23.4942 126.959 23.4942 126.974 23.4531C127.001 23.371 126.945 23.1479 126.863 23.0657C126.781 22.9815 126.032 22.4004 125.784 22.2908C125.538 22.1773 124.624 22.0658 124.376 22.3162ZM123.795 21.7898C124.006 21.8975 123.823 22.3162 123.711 22.3436C123.6 22.371 123.242 22.3984 123.076 22.3984C123.055 22.3984 123.034 22.3989 123.014 22.3993C122.877 22.4023 122.77 22.4046 122.744 22.2595C122.717 22.0932 122.856 21.9288 122.994 21.8446C123.133 21.7624 123.686 21.7351 123.795 21.7898ZM125.923 23.8112C125.769 23.8758 125.454 24.0324 125.509 24.1713C125.532 24.2302 125.585 24.294 125.641 24.3606C125.717 24.4512 125.797 24.547 125.811 24.6429C125.841 24.8092 126.089 24.9755 126.173 25.0029C126.185 25.0069 126.2 25.0131 126.219 25.0203L126.219 25.0203C126.329 25.0639 126.536 25.1455 126.56 25.0029C126.587 24.8366 126.697 24.7544 126.753 24.8366C126.798 24.9015 126.789 25.1923 126.783 25.3792C126.782 25.4289 126.781 25.4712 126.781 25.5C126.781 25.6369 126.945 25.8052 127.056 25.7778C127.167 25.7504 127.638 25.5293 127.666 25.4178C127.686 25.3409 127.665 25.0412 127.65 24.8263C127.644 24.7293 127.638 24.6496 127.638 24.6155C127.638 24.5059 127.277 24.0891 127.195 24.0343C127.146 24.0023 127.059 24.0545 126.968 24.1093L126.968 24.1093C126.904 24.1483 126.837 24.1885 126.781 24.2006C126.642 24.228 126.31 24.2554 126.31 24.1459C126.31 24.0363 126.255 23.6723 125.923 23.8112ZM136.926 25.9422C137.201 25.8874 137.506 25.6937 137.534 25.5548C137.534 25.5548 137.229 25.2241 137.092 25.1927C136.955 25.1653 136.789 25.3043 136.707 25.3865C136.623 25.4687 136.32 25.5802 136.07 25.6076C135.822 25.6369 135.656 25.6624 135.379 25.7191C135.101 25.7759 135.187 26.1085 135.297 26.1633C135.406 26.2181 136.07 26.1907 136.18 26.1359C136.289 26.0811 136.65 25.997 136.926 25.9422ZM138.335 28.2141C138.225 28.2689 137.909 28.3863 137.866 28.2141C137.818 28.0271 137.986 27.8799 138.107 27.7738C138.131 27.7534 138.152 27.7344 138.17 27.717C138.28 27.6075 138.833 27.4959 139.028 27.4959C139.22 27.4959 139.468 27.7718 139.497 27.9382C139.51 28.0202 139.504 28.1495 139.497 28.2793C139.489 28.4126 139.482 28.5466 139.497 28.6309C139.524 28.7952 139.11 28.8794 139.028 28.852C138.972 28.8325 138.966 28.7162 138.96 28.5915C138.957 28.5286 138.954 28.4636 138.944 28.4078C138.917 28.2415 138.444 28.1593 138.335 28.2141ZM138.444 30.3157C138.444 30.1787 138.555 29.8734 138.721 29.9008C138.887 29.9302 139.214 30.2041 139.27 30.3979C139.327 30.5916 139.298 30.9242 139.216 30.979C139.149 31.0239 139.063 31.2928 139.018 31.434C139.008 31.4654 139 31.4905 138.995 31.5054C138.98 31.5522 138.827 31.6844 138.681 31.8114C138.564 31.9127 138.451 32.0106 138.415 32.0592C138.331 32.1707 138.026 32.0338 137.916 31.9222C137.842 31.8463 137.959 31.7195 138.068 31.6025C138.119 31.5477 138.168 31.495 138.194 31.4506C138.276 31.3137 138.221 31.0358 138.221 31.0358C138.221 31.0358 138.387 30.9242 138.417 30.8421C138.444 30.7599 138.444 30.4527 138.444 30.3157Z" fill="white"/>
</g>
<g clip-path="url(#clip2)">
<path fill-rule="evenodd" clip-rule="evenodd" d="M368.537 25.0093L382.649 49.9326L366.395 49.9605L360.425 39.3837L354.457 49.9605L338.204 49.9326L352.316 25.0093L338.204 0H354.375L360.425 10.686L366.477 0H382.649L368.537 25.0093ZM320.755 0.0162791C334.51 0.0162791 345.662 11.1907 345.662 24.9744C345.662 38.7581 334.51 49.9326 320.755 49.9326C306.999 49.9326 295.849 38.7581 295.849 24.9744C295.849 11.1907 306.999 0.0162791 320.755 0.0162791ZM325.118 14.7128C325.118 12.3744 323.096 10.2802 320.824 10.2802C318.55 10.2802 316.712 12.3744 316.712 14.7128L316.707 35.1581C316.707 37.4988 318.55 39.3942 320.823 39.3942C323.096 39.3942 325.118 37.5581 325.118 35.2186V14.7128ZM264.67 49.9326V0H295.653L296.566 13.6198H279.752V20.1547H293.464V33.8174H279.752V49.9326H264.67Z" fill="white"/>
</g>
<g clip-path="url(#clip3)">
<path d="M493.116 0.515152C493.116 0.515152 491.317 0.552917 490.275 0.53525C490.231 0.973894 489.729 4.94876 489.297 8.1462C488.8 11.1049 484.861 33.0528 483.527 39.6228C483.175 41.6066 482.089 47.211 481.987 47.771C480.733 47.921 479.253 48.0597 478.286 48.097C478.156 48.1014 477.94 48.1436 477.838 48.1436V49.2815C477.956 49.2766 478.583 49.3248 479.026 49.3059C480.09 49.2717 483.111 49.1282 483.683 49.1282C485.855 49.1282 487.303 49.2723 489.313 49.3123C489.34 49.3123 489.891 49.3102 490.134 49.2793V48.1295C489.967 48.1295 489.745 48.1241 489.615 48.1241C489.048 48.142 486.957 47.9811 485.898 47.8365C486.023 47.0848 487.87 35.7179 488.756 31.1724C490.442 22.7588 491.609 16.7959 491.609 16.7959L491.922 17.5363L505.24 49.3557L507.671 49.3681C507.671 49.3681 509.06 45.9225 510.707 42.0578C510.751 41.9662 510.87 41.6895 511.037 41.2941C512.766 37.281 521.335 16.9134 521.335 16.9134C521.335 16.9134 521.416 17.2801 521.551 17.936C522.366 21.928 525.127 36.3148 525.716 39.7858C525.992 41.5714 526.251 43.3825 526.402 44.4435C526.624 45.9458 526.77 47.4162 526.77 47.8387C526.5 47.8511 523.787 48.097 522.761 48.1414C522.615 48.1366 522.339 48.1501 522.323 48.1528V49.3102C522.691 49.3102 523.047 49.3264 523.404 49.3183C525.5 49.2782 527.515 49.1136 529.611 49.1147C531.967 49.1168 535.787 49.3232 538.234 49.3389C538.51 49.3389 539.001 49.3145 539.001 49.3145V48.1452C538.861 48.1441 538.245 48.1138 538.018 48.0959C536.921 48.0098 535.074 47.8381 534.604 47.8067C534.604 47.8067 534.301 46.1262 533.901 44.1851C532.302 36.4204 527.748 12.8185 527.051 7.01103C526.813 5.01495 526.138 0.533084 526.138 0.533084L523.398 0.532228C523.398 0.532228 521.999 4.55694 520.724 8.22658C519.854 10.7341 518.671 13.8299 517.769 16.2036C513.317 27.9323 508.325 38.8615 508.325 38.8615C508.325 38.8615 497.714 13.4816 497.152 12.0139C496.585 10.5457 493.116 0.515439 493.116 0.515439V0.515152ZM416.841 0.525729L416.864 3.20827L416.819 9.74091L417.525 9.72087L417.599 3.91071C417.599 3.91055 421.47 3.87713 421.971 3.87778L429.189 3.88093L433.848 3.90421L433.855 44.3105L433.857 47.8005L433.758 47.8141C433.138 47.8623 430.752 48.0085 429.782 48.0437C429.565 48.0507 429.426 48.0561 429.403 48.0534L429.407 49.2357C429.582 49.2444 430.054 49.2558 430.116 49.2536C432.409 49.2238 435.511 49.024 437.711 49.0261C439.946 49.0272 443.092 49.2449 445.038 49.2677C445.231 49.2688 445.46 49.2498 445.645 49.2498V48.1412L445.404 48.1433C444.783 48.1406 441.353 47.9191 440.998 47.8725C440.984 47.3304 440.92 44.7135 440.92 44.6555L440.937 3.89988L444.484 3.89046L453.738 3.89679L456.827 3.93909C456.847 4.16033 457.003 7.10338 457.001 7.18353C456.994 7.39746 457.116 9.58981 457.111 10.1292L457.843 10.1379L457.791 3.53052L457.824 0.558387C455.105 0.632585 448.174 0.725955 437.417 0.720268C428.192 0.714581 419.302 0.637026 416.841 0.525621L416.841 0.525729ZM459.925 0.536306L459.937 1.69357C460.302 1.71345 462.449 1.90387 462.971 1.92944C463.388 1.98056 463.969 2.03288 464.385 2.07328C464.385 2.44378 464.391 5.00046 464.397 6.00949C464.467 15.5734 464.408 36.7105 464.379 44.1893C464.371 46.3519 464.365 47.7454 464.365 47.7454C464.102 47.8245 463.51 47.8543 462.869 47.8976C462.322 47.935 460.361 48.1001 459.923 48.1093V49.2667C460.105 49.2667 460.438 49.3052 460.627 49.3035C462.847 49.3041 465.934 49.0279 468.208 49.0295C470.506 49.0311 473.575 49.3117 475.385 49.3122L475.379 49.3133C475.536 49.3155 475.909 49.2743 476.065 49.2748V48.118H475.909C475.839 48.1028 473.505 48.0043 472.937 47.9452C472.64 47.9263 471.354 47.8147 471.338 47.7719C471.333 47.7492 471.327 47.4031 471.327 46.8263C471.333 46.2788 471.333 45.3684 471.333 44.3816C471.338 36.8378 471.36 14.4328 471.365 5.86868C471.365 4.21353 471.371 2.86871 471.371 2.14732C471.873 2.11547 473.926 1.9003 474.661 1.83531C474.693 1.83211 475.666 1.776 476.065 1.75174V0.545838C473.553 0.544918 470.229 0.741731 467.777 0.740485C465.213 0.738915 462.054 0.53727 459.925 0.536323V0.536306ZM576.191 0.56911C576.191 0.56911 575.926 0.570248 575.435 0.571223C573.755 0.57848 569.454 0.610109 564.424 0.637838C561.334 0.655819 558.919 0.680678 555.737 0.679107C553.505 0.70532 550.383 0.791541 548.454 0.788075C545.374 0.783038 542.862 0.592778 541.495 0.587091C540.847 0.584221 540.485 0.608701 540.307 0.597652C540.317 0.614062 540.317 1.74008 540.317 1.74008C540.436 1.76088 540.674 1.78741 540.896 1.78238C541.668 1.83448 543.116 1.95173 543.851 2.04895C543.997 2.07576 544.245 2.11686 544.937 2.19388C544.931 2.4501 544.969 5.34955 544.964 7.09157C544.964 8.70551 544.948 44.7157 544.948 44.7157C544.948 44.7742 544.866 47.6116 544.866 47.8407C543.645 48.0503 541.301 48.1792 540.501 48.1824H540.263V49.3279C540.377 49.3274 540.901 49.3479 541.198 49.3479C542.489 49.3474 545.817 49.1416 549.216 49.1394C551.598 49.1373 554.219 49.2266 556.871 49.2645C560.14 49.31 563.446 49.3122 566.418 49.3544C571.318 49.4238 575.289 49.4297 576.58 49.4314C576.58 49.4314 576.737 40.3202 576.737 39.5858L576.029 39.5939C576.029 40.3689 575.743 43.2551 575.732 43.3813C575.64 44.4677 575.543 45.6061 575.467 46.1672C575.467 46.1672 575.122 46.1948 574.954 46.1916C574.149 46.1764 571.577 46.2701 571.523 46.2701L560.053 46.275L551.998 46.1396L551.944 43.8996L551.939 26.5081C553.376 26.4593 555.569 26.383 556.904 26.3857C558.038 26.3878 560.713 26.3239 562.209 26.3272C565.845 26.3337 569.076 26.357 569.335 26.3645C569.935 26.3819 571.048 26.4187 571.469 26.4447C571.485 26.598 571.534 26.8374 571.54 26.9051C571.756 28.2368 571.874 29.1591 572.02 30.4665C572.042 30.5841 572.053 30.6978 572.069 30.805H572.896C572.896 30.805 572.917 30.3376 572.906 30.0468C572.89 29.0216 572.825 26.9765 572.825 24.71C572.82 23.1388 572.912 20.7369 572.923 19.5817C572.928 19.2692 572.89 19.0471 572.89 18.9578L572.134 18.9724C572.128 19.2221 572.069 19.5904 572.069 19.5904C572.004 20.4515 571.761 21.552 571.567 22.7132C571.513 22.8578 571.475 23.0598 571.475 23.0598C571.388 23.089 569.016 23.2157 568.806 23.2141C568.725 23.2136 565.272 23.3105 565.213 23.3105L551.944 23.2607L551.966 4.08305C551.966 4.0831 553.651 4.02342 554.121 4.02596C556.034 4.02629 559.146 4.00885 562.317 4.01329C566.958 4.01892 571.464 4.0479 571.475 4.0545C571.502 4.06777 572.874 4.08689 572.901 4.11056C572.933 4.13645 574.651 4.18795 575.073 4.20155C575.073 4.20155 575.105 4.34431 575.127 4.52417C575.316 6.54619 575.473 8.94759 575.543 9.79843L575.548 10.1391L576.256 10.1369C576.256 8.89181 576.191 5.0787 576.18 2.65271C576.175 1.87353 576.191 1.239 576.191 0.877978V0.56911Z" fill="white"/>
</g>
<path d="M24.8318 80C10.9993 80 0 91.2364 0 104.924C0 118.761 10.9993 130 24.8318 130C38.7373 130 49.589 118.763 49.589 104.928C49.5914 91.2408 38.7373 80 24.8318 80ZM24.8318 90.5794C36.1262 90.5794 44.4 97.7155 47.8964 104.928C44.4 112.251 36.1262 119.421 24.8318 119.421C13.4644 119.421 5.25677 112.248 1.76274 104.928C5.25677 97.7178 13.4668 90.5837 24.8318 90.5837V90.5794V90.5794ZM24.8318 91.7136C17.4741 91.7136 11.4753 97.6385 11.4753 104.924C11.4753 112.319 17.4741 118.212 24.8318 118.212C32.1895 118.212 38.1093 112.319 38.1093 104.928C38.1093 97.6428 32.1895 91.7136 24.8318 91.7136Z" fill="white"/>
<path d="M73.3289 82.9666C60.3416 82.9666 51.2903 92.7752 51.2903 104.706V104.849C51.2903 116.927 60.526 126.484 73 126.484C81.13 126.484 85.9876 123.591 90.3292 118.941L84.4052 113.016C81.0924 116.015 78.109 117.959 73.2894 117.959C66.0424 117.959 61.0029 111.913 61.0029 104.706V104.596C61.0029 97.3862 66.153 91.4911 73.2894 91.4911C77.5204 91.4911 80.8319 93.2851 84.107 96.2507L90.031 89.4407C86.0943 85.599 81.3129 82.9666 73.3289 82.9666Z" fill="white"/>
<path d="M93.8328 83.6951V125.746H113.955C123.481 125.746 129.772 121.908 129.772 114.225V114.076C129.772 108.44 126.758 105.619 121.861 103.754C124.88 102.073 127.417 99.4378 127.417 94.6802V94.5711C127.417 91.6758 126.459 89.3342 124.51 87.3946C122.085 85.017 118.295 83.6951 113.473 83.6951H93.8328ZM102.879 91.7834H112.078C116.015 91.7834 118.182 93.357 118.182 96.1024V96.2507C118.182 99.3616 115.572 100.679 111.451 100.679L102.879 100.683V91.7834V91.7834ZM102.879 108.37H113.661C118.403 108.37 120.537 110.128 120.537 112.946V113.09C120.537 116.201 118.038 117.628 113.955 117.628L102.879 117.632V108.37V108.37Z" fill="white"/>
<path d="M148.009 83.0757C139.401 83.0757 133.223 88.125 133.223 95.7709V95.8843C133.223 104.233 138.737 106.577 147.237 108.737C154.3 110.564 155.77 111.734 155.77 114.076V114.225C155.77 116.675 153.45 118.177 149.662 118.177C144.804 118.177 140.833 116.197 137.042 113.086L131.526 119.639C136.602 124.141 143.076 126.34 149.477 126.34V126.335C158.601 126.335 165 121.648 165 113.309V113.2C165 105.844 160.146 102.8 151.573 100.57C144.291 98.7005 142.448 97.7877 142.448 95.0423V94.9333C142.448 92.8836 144.325 91.2381 147.895 91.2381C151.464 91.2381 155.143 92.8089 158.896 95.4044L163.715 88.4199C159.447 85.0162 154.189 83.0757 148.009 83.0757Z" fill="white"/>
<g clip-path="url(#clip4)">
<path fill-rule="evenodd" clip-rule="evenodd" d="M197.333 105.529C197.333 86.3409 212.773 70.875 231.994 70.875C251.212 70.875 266.64 86.3409 266.64 105.529C266.64 124.717 251.212 140.183 231.994 140.183C212.774 140.183 197.333 124.717 197.333 105.529ZM198.401 105.53C198.401 99.5157 203.239 94.6646 209.267 94.6646V94.6645C215.296 94.6645 220.133 99.5153 220.133 105.529V116.159H214.417V113.784C214.417 113.784 212.969 116.395 209.267 116.395C203.239 116.395 198.401 111.544 198.401 105.53ZM214.446 105.53C214.446 102.66 212.142 100.345 209.267 100.345C206.393 100.345 204.089 102.66 204.089 105.53C204.089 108.4 206.393 110.714 209.267 110.714C212.142 110.714 214.446 108.4 214.446 105.53ZM221.516 87.1823V105.529C221.516 111.544 226.357 116.398 232.386 116.398C238.415 116.398 243.243 111.543 243.243 105.529C243.243 99.5153 238.415 94.6607 232.386 94.6607C228.684 94.6607 227.232 97.2781 227.232 97.2781V87.182L221.516 87.1823ZM232.386 100.345C235.26 100.345 237.565 102.66 237.565 105.53C237.565 108.4 235.26 110.715 232.386 110.715C229.512 110.715 227.207 108.4 227.207 105.53C227.207 102.66 229.512 100.345 232.386 100.345ZM244.176 105.53C244.176 99.5157 249.013 94.6646 255.042 94.6646L255.041 94.6645C260.25 94.6645 264.567 98.2853 265.647 103.148H259.649C258.789 101.484 257.054 100.345 255.042 100.345C252.167 100.345 249.863 102.66 249.863 105.529C249.863 108.399 252.167 110.714 255.042 110.714C257.048 110.714 258.774 109.58 259.637 107.923H265.647C264.563 112.78 260.246 116.395 255.042 116.395C249.013 116.395 244.176 111.544 244.176 105.53Z" fill="white"/>
</g>
<g clip-path="url(#clip5)">
<path d="M308.887 82.4231C306.09 84.9923 305.072 90.8137 310.114 94.2167L330.23 108.22L320.476 85.547C318.432 80.1967 312.841 79.03 308.887 82.4231Z" fill="white"/>
<path d="M326.203 71.3995C322.933 71.467 318.023 75.4179 320.208 81.4509L330.296 105.59L333.84 80.2003C334.661 73.8914 329.955 70.9791 326.203 71.3995Z" fill="white"/>
<path d="M335.415 79.2321H337.322C337.322 79.2321 338.341 79.2321 338.48 79.7196C337.729 80.3416 335.686 80.4195 335.957 83.7419L339.164 105.587L349.183 81.3842C351.232 75.9802 346.93 71.467 343.115 71.329C342.936 71.316 342.757 71.3055 342.573 71.3055C339.148 71.3053 335.223 73.8308 335.415 79.2321Z" fill="white"/>
<path d="M348.779 85.7525L339.303 108.153L359.413 94.0762C364.049 90.74 363.301 85.4063 360.706 82.7699C359.618 81.5291 357.621 80.5705 355.505 80.5705C353.005 80.5701 350.33 81.9154 348.779 85.7525Z" fill="white"/>
<path d="M357.162 97.2637L338.276 110.648H361.529C366.3 110.648 369.366 105.657 368.003 101.077C367.09 98.1983 364.39 95.9384 361.255 95.9352C359.936 95.9358 358.536 96.339 357.162 97.2637Z" fill="white"/>
<path d="M308.345 110.648H331.256L312.365 97.2637C308.001 94.4186 303.094 96.0833 301.322 100.805C299.821 106.209 303.57 110.648 308.345 110.648Z" fill="white"/>
<path d="M333.717 128.962H337.967C338.944 129.024 340.676 129.889 340.676 131.939C340.676 134.083 338.879 134.948 337.905 135.046H333.717V128.962ZM333.652 119.417H337.151C338.347 119.482 339.761 120.379 339.761 122.044C339.761 123.676 338.692 124.765 337.308 124.959H333.652V119.417ZM328.87 115.445V139.014H340.14C342.816 139.014 345.996 136.293 345.996 132.739C345.996 129.024 343.604 127.2 342.091 126.463C342.091 126.463 344.862 124.83 344.739 121.307C344.613 116.567 340.297 115.445 338.818 115.445H328.87Z" fill="white"/>
<path d="M311.582 139.014V125.439L326.191 139.91V115.445H321.282V128.673L306.67 114.486V139.014H311.582Z" fill="white"/>
<path d="M346.785 126.974C346.908 134.428 352.186 140 358.971 140C360.58 140 362.275 139.691 364.007 139.014V134.212C362.634 135.063 361.107 135.473 359.61 135.473C355.504 135.473 351.63 132.39 351.79 126.783C352.067 122.234 355.737 119.093 359.692 119.093C361.14 119.093 362.63 119.517 364.007 120.442V115.768C362.402 115.108 360.806 114.812 359.269 114.812C352.501 114.812 346.915 120.605 346.785 126.974Z" fill="white"/>
</g>
<path d="M429.75 80C423.375 80 418 80 418 80L415.625 93.5H426.75L427.5 89.125C427.5 89.125 430 88.75 429.75 90.875C429.5 93 425.875 113.125 425.875 113.125H437.125C437.125 113.125 440 96.75 440.875 91.625C442.5 82.5 438.375 80 429.75 80Z" fill="white"/>
<path d="M424.875 118.25C424.25 120.5 422 120.125 422 120.125L422.75 115.75H411.625L409.25 129.25C409.25 129.25 416.125 129.25 422.25 129.25C431.625 129.25 434.625 126.625 435.875 119C436 118.5 436.375 115.75 436.375 115.75H425.25C425.5 115.75 425.5 116 424.875 118.25Z" fill="white"/>
<path d="M410 97H402.75L402.25 100H404.125L402 112.25H405.375L407.5 100.125H409.5L410 97Z" fill="white"/>
<path d="M412.875 105.875H413.75L412.625 112.25H416L418.75 96.875H415.375L414.375 102.375L413.375 102.5L414.25 97H411.125L408.375 112.375H411.625L412.875 105.875Z" fill="white"/>
<path d="M425 100L425.5 97H420L417.375 112.375H423L423.5 109.25H421.125L421.75 105.875H423.875L424.375 102.875H422.375L422.875 100H425Z" fill="white"/>
<path d="M465 99C465.125 98.875 465.125 98.875 465 99V99Z" fill="white"/>
<path d="M454.75 88C442.375 88 440.875 101.875 440.75 102.5C440.625 103.125 438.875 113.25 438.875 113.25H443.125L450.5 94.625C450.5 94.625 451.25 93.875 451.75 93.875C452.25 93.875 452.875 94.75 452.875 94.75L452.25 115.625L454.875 110.125C454.875 110.125 455.5 109.125 456.25 109.125C457 109.125 457.375 110.125 457.375 110.125L458.375 113.375H462.5C462.5 113.375 464.625 101.25 465 99.375C464.875 99.875 466.75 88 454.75 88Z" fill="white"/>
<path d="M455.75 113.75L452 121.625C452 121.625 451.875 122.875 450.625 122.875C449.375 122.875 449.375 121.875 449.375 121.875L450 102.5C450 102.5 445.75 113 445.375 113.875C445 114.75 444.25 115.75 443.625 115.75C442.875 115.75 438.375 115.75 438.375 115.75C438.375 115.75 438 118.625 437.875 120.125C437.75 121.75 437 129.875 447.375 129.875C457.625 129.875 460.375 121.875 461 120C461.5 118.25 462 115.625 462 115.625C462 115.625 458.25 115.625 457.125 115.625C456 115.75 455.75 113.75 455.75 113.75Z" fill="white"/>
<path d="M474.75 113.25L477.25 99C477.25 99 477.375 95.625 479 95.625C480.375 95.625 479.5 99 479.5 99L478.875 102.5H489L489.625 99C489.625 99 490.875 88 479.75 88C468.625 88 466.5 99.125 466.5 99.125L464 113.25H474.75Z" fill="white"/>
<path d="M476.375 120.125C476.375 120.125 475.625 122.25 474.625 122.25C473.625 122.25 473.75 120.125 473.75 120.125L474.5 115.75L463.625 115.625C463.625 115.625 463.125 119.375 463.25 120.125C463.25 120.875 462.125 129.875 472.5 129.875C482.875 129.875 485.375 121.5 485.75 120.125C486.125 118.75 486.75 115.75 486.75 115.75H477.25L476.375 120.125Z" fill="white"/>
<path d="M489.125 113.25H499.875L502.875 96.75H505.5L506.75 89.75H504.125L505.125 83.5H494.375L493.375 89.75H491.125L489.875 96.75H492L489.125 113.25Z" fill="white"/>
<path d="M498.875 119.625C499.375 117 499.5 115.75 499.5 115.75H488.625C488.625 115.75 488 119.25 487.625 121.5C487.25 123.75 486.75 129.125 493.375 129.125C496 129.125 500.25 129.125 500.25 129.125L501.5 122H499.25C499.375 122 498.375 122.5 498.875 119.625Z" fill="white"/>
<path d="M503 113.125H507L513.625 96.375C513.625 96.375 514.375 94.125 515.625 94.125C516.875 94.125 516.625 96.375 516.625 96.375L516 115.875C516 115.875 517.875 111.625 518.5 110.5C519.125 109.375 520.625 108.625 521.25 110.5C521.5 111.25 522 113.25 522 113.25H526.5C526.5 113.25 528.375 102.375 529 99C529.625 95.375 528.25 88.125 518.625 88.125C509 88.125 506.125 96.875 505.5 99.125C505.25 100.875 503 113.125 503 113.125Z" fill="white"/>
<path d="M521.125 115.75C520 115.75 519.625 114.125 519.625 114.125L516 121.75C516 121.75 515.625 123.25 514.375 123.25C513.125 123.25 513.25 121.875 513.25 121.875L513.875 102.875C513.875 102.875 510.75 110.5 509.75 113.25C508.75 115.875 508.125 115.75 507.5 115.75C506.875 115.75 502.75 115.75 502.75 115.75C502.75 115.75 502.375 117 502.25 120.125C501.875 123.25 502.25 130 512 130C521.75 130 524.75 121.25 525.25 120.125C525.625 119 526.25 115.75 526.25 115.75C526.25 115.75 522.25 115.75 521.125 115.75Z" fill="white"/>
<path d="M547.125 102.5L549.75 87.875C549.75 87.875 548.125 88 546 89.125C544 90.25 543 92.125 543 92.125L543.625 88.75H532.875L528.625 113H539.5C539.5 113 539.75 111.625 540.625 106.75C541.5 101.875 547.125 102.5 547.125 102.5Z" fill="white"/>
<path d="M525.75 129.25H536.5L538.875 115.75H528.125L525.75 129.25Z" fill="white"/>
<path d="M557.5 120.125C557.5 120.125 557.125 122.125 555.875 122.125C554.5 122.125 554.875 120.125 554.875 120.125L555.625 115.75H546C546 115.75 545.75 116.375 545.375 120.125C544.875 123.875 545.625 129.875 555.5 129.875C565.375 129.875 567.25 121.75 567.75 120.125C568.25 118.5 568.5 115.75 568.5 115.75H558.5L557.5 120.125Z" fill="white"/>
<path d="M569.5 91.25C568.125 89.625 565.625 88.125 561.5 88.125C557.125 88.125 554.25 89.5 552.125 91.375C549.625 93.625 548.5 99.125 548.5 99.125C548.5 99.125 547.5 104.375 548.5 107C549.5 109.375 554.875 113.375 554.875 113.375H568.25C568.25 113.375 568.5 111 566.75 108.75C565.25 107 561.75 104.875 559.625 103.125C558.25 101.875 558 101 558.375 99.125C558.625 98 558.625 95.875 560.25 95.875C561.625 95.875 561 98.25 561 98.25L560.25 102.625H569.875L570.5 99.25C570.375 99.125 571.75 94 569.5 91.25Z" fill="white"/>
<defs>
<clipPath id="clip0">
<rect width="78" height="50" fill="white"/>
</clipPath>
<clipPath id="clip1">
<rect width="130" height="50" fill="white" transform="translate(106.333)"/>
</clipPath>
<clipPath id="clip2">
<rect width="118" height="50" fill="white" transform="translate(264.667)"/>
</clipPath>
<clipPath id="clip3">
<rect width="161" height="50" fill="white" transform="translate(411)"/>
</clipPath>
<clipPath id="clip4">
<rect width="70" height="70" fill="white" transform="translate(197.333 70)"/>
</clipPath>
<clipPath id="clip5">
<rect width="70" height="70" fill="white" transform="translate(299.667 70)"/>
</clipPath>
</defs>
</svg>
